<svg xmlns="http://www.w3.org/2000/svg" xmlns:xlink="http://www.w3.org/1999/xlink" width="1155.46" height="1172" viewBox="0 0 1155.46 1172">
  <defs>
    <clipPath id="clip-path">
      <path id="Path_54" data-name="Path 54" d="M0,0H1150V874H0Z" transform="translate(175 453)" fill="#fff"/>
    </clipPath>
  </defs>
  <g id="_1656592034_5-illustration_svg" data-name="1656592034_5-illustration_svg" transform="translate(-169.54 -155)">
    <g id="Mask_Group_1" data-name="Mask Group 1" clip-path="url(#clip-path)">
      <path id="Path_1" data-name="Path 1" d="M259.5,1251.44a38.072,38.072,0,0,0,36.745-6.48c12.87-10.8,16.906-28.59,20.188-45.07l9.711-48.73-20.331,13.99c-14.622,10.07-29.572,20.46-39.7,35.04s-14.54,34.49-6.409,50.27" fill="#e6e6e6"/>
      <path id="Path_2" data-name="Path 2" d="M262.638,1313.84c-2.559-18.65-5.192-37.53-3.392-56.37,1.594-16.74,6.7-33.08,17.1-46.48a77.276,77.276,0,0,1,19.839-17.98c1.983-1.25,3.809,1.89,1.834,3.14a73.51,73.51,0,0,0-29.079,35.08c-6.331,16.1-7.347,33.65-6.257,50.76.659,10.34,2.06,20.61,3.467,30.88a1.871,1.871,0,0,1-1.27,2.23,1.8,1.8,0,0,1-1.379-.17,1.826,1.826,0,0,1-.856-1.1Z" fill="#f2f2f2"/>
      <path id="Path_3" data-name="Path 3" d="M281.058,1283.92a27.993,27.993,0,0,0,24.407,12.6c12.358-.58,22.657-9.2,31.928-17.39l27.425-24.22-18.15-.86c-13.053-.63-26.443-1.22-38.876,2.81s-23.9,13.72-26.171,26.58" fill="#e6e6e6"/>
      <path id="Path_4" data-name="Path 4" d="M255.4,1324.55c12.32-21.79,26.609-46.02,52.143-53.76a58.089,58.089,0,0,1,21.93-2.27c2.329.2,1.747,3.79-.576,3.59a54.034,54.034,0,0,0-35,9.26c-9.868,6.72-17.553,16.06-24.055,25.96-3.984,6.07-7.553,12.39-11.121,18.7C257.586,1328.05,254.252,1326.59,255.4,1324.55Z" fill="#f2f2f2"/>
      <path id="Path_5" data-name="Path 5" d="M622.3,882.812a16.569,16.569,0,0,0-2.248,1.316l-72.585-28.372-2.878-18.712-28.809.651,1.874,33.621a12.572,12.572,0,0,0,9.712,11.547L613.737,902.9a16.5,16.5,0,1,0,8.563-20.086Z" fill="#ffb6b6"/>
      <path id="Path_6" data-name="Path 6" d="M513.317,1305.57h19.266l9.165-74.31H513.314Z" fill="#ffb6b6"/>
      <path id="Path_7" data-name="Path 7" d="M508.4,1299.28l37.941-.01h0a24.193,24.193,0,0,1,24.179,24.18v.79H508.4Z" fill="#4fcca3"/>
      <path id="Path_8" data-name="Path 8" d="M420.6,1305.57h19.267l9.164-74.31H420.6Z" fill="#ffb6b6"/>
      <path id="Path_9" data-name="Path 9" d="M415.686,1299.28l37.941-.01h0a24.193,24.193,0,0,1,24.179,24.18v.79H415.687Z" fill="#4fcca3"/>
      <path id="Path_10" data-name="Path 10" d="M431.771,739.032c-5.487-22.653-10.135-48.2.212-69.068,7.18-14.477,33.741-19.352,48.966-14.136s26.234,19.365,31.076,34.792,4.278,32.052,2.168,48.09C486.191,738.172,458.189,737.634,431.771,739.032Z" fill="#3f3d56"/>
      <path id="Path_11" data-name="Path 11" d="M479.025,739.026a32.651,32.651,0,1,0-32.653-32.651A32.652,32.652,0,0,0,479.025,739.026Z" fill="#ffb6b6"/>
      <path id="Path_12" data-name="Path 12" d="M439.107,699.649a41.014,41.014,0,1,1,81.978,1.08C493.136,700.789,465.187,700.848,439.107,699.649Z" fill="#3f3d56"/>
      <path id="Path_13" data-name="Path 13" d="M451.926,859.488,438.27,882.247s-37.4,70.139-35.176,128.273l8.277,72.42-9.083,17.77,6.08,31.27-11.291,22.39,20.411,108.13.868,23.45h33.005l-1.737-23.88,13.9-105.34,23.45-112.47,12.16,97.09-4.343,24.31,5.646,20.41,7.817,62.97.868,30.4,29.965,3.47,11.292-112.47,6.514-53.66L521.979,878.843Z" fill="#4fcca3"/>
      <path id="Path_14" data-name="Path 14" d="M447.6,749.6l-20.331,8.635-11.419,47.254,24.042,61.568L430.9,897.815c27.207,46.537,60.883,53.3,100.509,23.455-8.387-23.546-7.175-47.756,1.183-72.462,0,0,20.845-19.41,6.283-44.645l-13.89-37.7-17.2-8.6Z" fill="#d84d4d"/>
      <path id="Path_15" data-name="Path 15" d="M520.979,774.681l4.615-8.571s12.172,1.831,17.143,16.483S549,856.434,549,856.434l-26.043,1.319Z" fill="#d84d4d"/>
      <path id="Path_16" data-name="Path 16" d="M418.951,975.574a16.881,16.881,0,0,0,6.037-25.171l12.623-123.416h-27.28L400.3,947.5a16.972,16.972,0,0,0,18.653,28.077Z" fill="#ffb6b6"/>
      <path id="Path_17" data-name="Path 17" d="M443.879,772.189l-9.561-13.516s-16.813-11.4-25.384,14.834-7.253,74.831-7.253,74.831l32.637,13.516Z" fill="#d84d4d"/>
      <path id="Path_18" data-name="Path 18" d="M1013.85,570.853H862.988v84.854H1013.85Z" fill="#f1f1f1"/>
      <path id="Path_19" data-name="Path 19" d="M1325,504.855H1174.14V589.71H1325Z" fill="#f1f1f1"/>
      <path id="Path_20" data-name="Path 20" d="M1277.86,724.848H1127V809.7h150.86Z" fill="#f1f1f1"/>
      <path id="Path_21" data-name="Path 21" d="M1221.28,453H1070.42v84.854h150.86Z" fill="#e5e5e5"/>
      <path id="Path_22" data-name="Path 22" d="M1226,609.45H977.705V749.106H1226Z" fill="#d84d4d"/>
      <path id="Path_23" data-name="Path 23" d="M724.185,835.723H984.612v-111.9h4.07V839.792h-264.5Z" fill="#3f3d56"/>
      <path id="Path_24" data-name="Path 24" d="M986.647,764.995a22.379,22.379,0,1,0-22.38-22.379A22.381,22.381,0,0,0,986.647,764.995Z" fill="#3f3d56"/>
      <path id="Path_25" data-name="Path 25" d="M788.162,875.818H666.086v4.069H788.162Z" fill="#d84d4d"/>
      <path id="Path_26" data-name="Path 26" d="M788.162,888.025H666.086v4.069H788.162Z" fill="#d84d4d"/>
      <path id="Path_27" data-name="Path 27" d="M788.162,900.232H666.086V904.3H788.162Z" fill="#d84d4d"/>
      <path id="Path_28" data-name="Path 28" d="M701.442,1326.68H176.571a1.571,1.571,0,0,1-1.571-1.57,1.57,1.57,0,0,1,1.571-1.57H701.442a1.572,1.572,0,0,1,1.572,1.57,1.572,1.572,0,0,1-1.572,1.57Z" fill="#d84d4d"/>
      <path id="Path_29" data-name="Path 29" d="M663.718,1297.78a17.246,17.246,0,0,1-16.632-2.93c-5.825-4.89-7.653-12.94-9.137-20.4l-4.395-22.06,9.2,6.33c6.617,4.56,13.384,9.26,17.966,15.86s6.582,15.61,2.9,22.75" fill="#e6e6e6"/>
      <path id="Path_30" data-name="Path 30" d="M662.931,1324.49a89.111,89.111,0,0,0,1.236-20.52,32.248,32.248,0,0,0-6.221-16.91,28.132,28.132,0,0,0-7.219-6.54c-.722-.46-1.386.69-.668,1.14a26.767,26.767,0,0,1,10.581,12.77,42.809,42.809,0,0,1,2.274,18.47c-.241,3.76-.749,7.5-1.262,11.23a.685.685,0,0,0,.069.5.692.692,0,0,0,.393.32.678.678,0,0,0,.5-.07.655.655,0,0,0,.312-.39Z" fill="#f2f2f2"/>
      <circle id="Ellipse_1" data-name="Ellipse 1" cx="4" cy="4" r="4" transform="translate(462 708)" fill="#3f3d56"/>
      <circle id="Ellipse_2" data-name="Ellipse 2" cx="4" cy="4" r="4" transform="translate(491 708)" fill="#3f3d56"/>
    </g>
    <path id="Path_31" data-name="Path 31" d="M732.832,609H514.168A13.2,13.2,0,0,1,501,595.8V438.2A13.2,13.2,0,0,1,514.168,425H732.832A13.2,13.2,0,0,1,746,438.2V595.8A13.2,13.2,0,0,1,732.832,609Z" fill="#e6e6e6"/>
    <path id="Path_32" data-name="Path 32" d="M517.4,598H728.6a6.4,6.4,0,0,0,6.4-6.4V441.4a6.4,6.4,0,0,0-6.4-6.4H517.4a6.4,6.4,0,0,0-6.4,6.4V591.6a6.4,6.4,0,0,0,6.4,6.4Z" fill="#fff"/>
    <path id="Path_33" data-name="Path 33" d="M439.778,397H220.221A13.227,13.227,0,0,1,207,383.8V226.2A13.227,13.227,0,0,1,220.221,213H439.778A13.227,13.227,0,0,1,453,226.2V383.8A13.227,13.227,0,0,1,439.778,397Z" fill="#e6e6e6"/>
    <path id="Path_34" data-name="Path 34" d="M224.4,387H435.6a6.4,6.4,0,0,0,6.4-6.4V230.4a6.4,6.4,0,0,0-6.4-6.4H224.4a6.4,6.4,0,0,0-6.4,6.4V380.6a6.4,6.4,0,0,0,6.4,6.4Z" fill="#fff"/>
    <path id="Path_35" data-name="Path 35" d="M703.2,482H568.8a5.062,5.062,0,0,0-1.837.343,4.833,4.833,0,0,0-1.557.975,4.5,4.5,0,0,0-1.041,1.46,4.245,4.245,0,0,0,0,3.444,4.5,4.5,0,0,0,1.041,1.46,4.833,4.833,0,0,0,1.557.975A5.062,5.062,0,0,0,568.8,491H703.2a4.966,4.966,0,0,0,3.394-1.318,4.3,4.3,0,0,0,0-6.364A4.966,4.966,0,0,0,703.2,482Z" fill="#e6e6e6"/>
    <path id="Path_36" data-name="Path 36" d="M568.8,511a4.622,4.622,0,0,0-1.837.381,4.8,4.8,0,0,0-1.557,1.083,5.037,5.037,0,0,0-1.041,1.623,5.2,5.2,0,0,0,0,3.826,5.037,5.037,0,0,0,1.041,1.623,4.8,4.8,0,0,0,1.557,1.083A4.623,4.623,0,0,0,568.8,521H703.2a4.706,4.706,0,0,0,3.394-1.464,5.149,5.149,0,0,0,0-7.072A4.706,4.706,0,0,0,703.2,511Z" fill="#e6e6e6"/>
    <path id="Path_37" data-name="Path 37" d="M568.8,541a4.706,4.706,0,0,0-3.394,1.464,5.149,5.149,0,0,0,0,7.072A4.706,4.706,0,0,0,568.8,551H703.2a4.706,4.706,0,0,0,3.394-1.464,5.149,5.149,0,0,0,0-7.072A4.706,4.706,0,0,0,703.2,541Z" fill="#e6e6e6"/>
    <path id="Path_38" data-name="Path 38" d="M543,493a6,6,0,1,0-6-6A6,6,0,0,0,543,493Z" fill="#d84d4d"/>
    <path id="Path_39" data-name="Path 39" d="M543,523a6,6,0,1,0-6-6A6,6,0,0,0,543,523Z" fill="#e6e6e6"/>
    <path id="Path_40" data-name="Path 40" d="M543,552a6,6,0,1,0-6-6A6,6,0,0,0,543,552Z" fill="#e6e6e6"/>
    <path id="Path_41" data-name="Path 41" d="M650,486.5a4.245,4.245,0,0,1-.367,1.722,4.5,4.5,0,0,1-1.044,1.46,4.871,4.871,0,0,1-1.564.975,5.121,5.121,0,0,1-1.844.343H568.992a5.155,5.155,0,0,1-3.256-1.087,4.54,4.54,0,0,1-1.694-2.815,4.221,4.221,0,0,1,.165-1.9,4.433,4.433,0,0,1,.988-1.663,4.83,4.83,0,0,1,1.634-1.135,5.122,5.122,0,0,1,1.99-.4h76.362a5,5,0,0,1,3.408,1.318A4.356,4.356,0,0,1,650,486.5Z" fill="#d84d4d"/>
    <path id="Path_42" data-name="Path 42" d="M623.5,404A19.006,19.006,0,1,0,604,385,19.255,19.255,0,0,0,623.5,404Z" fill="#e6e6e6"/>
    <path id="Path_43" data-name="Path 43" d="M632.788,386.735a9.628,9.628,0,1,0-11.045,7.962A9.627,9.627,0,0,0,632.788,386.735Z" fill="#fff"/>
    <path id="Path_44" data-name="Path 44" d="M239.762,301a4.905,4.905,0,0,0-3.367,1.318,4.327,4.327,0,0,0,0,6.364A4.905,4.905,0,0,0,239.762,310H419.238a4.905,4.905,0,0,0,3.367-1.318,4.327,4.327,0,0,0,0-6.364A4.905,4.905,0,0,0,419.238,301Z" fill="#e6e6e6"/>
    <path id="Path_45" data-name="Path 45" d="M239.762,330a4.905,4.905,0,0,0-3.367,1.318,4.327,4.327,0,0,0,0,6.364A4.905,4.905,0,0,0,239.762,339H419.238a4.905,4.905,0,0,0,3.367-1.318,4.327,4.327,0,0,0,0-6.364A4.905,4.905,0,0,0,419.238,330Z" fill="#e6e6e6"/>
    <path id="Path_46" data-name="Path 46" d="M319.833,361a5.018,5.018,0,0,0-3.417,1.318,4.283,4.283,0,0,0,0,6.364A5.018,5.018,0,0,0,319.833,370h19.334a5.018,5.018,0,0,0,3.417-1.318,4.283,4.283,0,0,0,0-6.364A5.018,5.018,0,0,0,339.167,361Z" fill="#d84d4d"/>
    <path id="Path_47" data-name="Path 47" d="M304.466,240A1.465,1.465,0,0,0,303,241.461v37.078A1.465,1.465,0,0,0,304.466,280h51.068A1.465,1.465,0,0,0,357,278.539V241.461A1.465,1.465,0,0,0,355.534,240Z" fill="#d84d4d"/>
    <path id="Path_48" data-name="Path 48" d="M330,264a8,8,0,1,0-8-8A8,8,0,0,0,330,264Z" fill="#fff"/>
    <path id="Path_49" data-name="Path 49" d="M343,276.25a8.433,8.433,0,0,1-.867,3.75H317.869a8.524,8.524,0,0,1,.3-8.06,8.088,8.088,0,0,1,2.892-2.889A7.721,7.721,0,0,1,324.946,268h10.11a7.789,7.789,0,0,1,5.615,2.412A8.406,8.406,0,0,1,343,276.241Z" fill="#fff"/>
    <path id="Path_50" data-name="Path 50" d="M330,264a8,8,0,1,0-8-8A8,8,0,0,0,330,264Z" fill="#fff"/>
    <path id="Path_51" data-name="Path 51" d="M343,276.25a8.433,8.433,0,0,1-.867,3.75H317.869a8.524,8.524,0,0,1,.3-8.06,8.088,8.088,0,0,1,2.892-2.889A7.721,7.721,0,0,1,324.946,268h10.11a7.789,7.789,0,0,1,5.615,2.412A8.406,8.406,0,0,1,343,276.241Z" fill="#fff"/>
    <path id="Path_52" data-name="Path 52" d="M330,193a19,19,0,1,0-19-19A19,19,0,0,0,330,193Z" fill="#e6e6e6"/>
    <path id="Path_53" data-name="Path 53" d="M329.5,183a9.5,9.5,0,1,0-9.5-9.5A9.5,9.5,0,0,0,329.5,183Z" fill="#d84d4d"/>
  </g>
</svg>
